<?xml version="1.0" standalone="no"?>
<!DOCTYPE svg PUBLIC "-//W3C//DTD SVG 20010904//EN"
 "http://www.w3.org/TR/2001/REC-SVG-20010904/DTD/svg10.dtd">
<svg version="1.0" xmlns="http://www.w3.org/2000/svg"
 width="512.000000pt" height="512.000000pt" viewBox="0 0 512.000000 512.000000"
 preserveAspectRatio="xMidYMid meet">

<g transform="translate(0.000000,512.000000) scale(0.100000,-0.100000)"
fill="#000000" stroke="none">
<path d="M165 4986 c-66 -30 -121 -89 -145 -154 -20 -52 -20 -83 -20 -1870 0
-1987 -2 -1917 59 -2094 112 -330 368 -590 687 -698 185 -63 70 -60 2208 -60
l1951 0 50 24 c95 44 165 148 165 245 0 102 -66 207 -158 253 l-47 23 -1955 5
c-1751 4 -1960 7 -2000 21 -195 69 -321 196 -386 389 -18 53 -19 138 -24 1905
l-5 1850 -27 47 c-73 123 -227 173 -353 114z"/>
<path d="M4254 3882 c-55 -19 -90 -43 -127 -88 -13 -16 -160 -225 -327 -464
-166 -239 -308 -441 -316 -449 -11 -12 -80 36 -475 333 -254 192 -480 357
-503 367 -66 30 -159 26 -232 -11 -73 -36 -46 0 -538 -707 -225 -324 -383
-561 -393 -589 -20 -59 -13 -155 15 -210 46 -90 158 -158 258 -156 55 1 121
33 167 80 20 20 180 243 355 494 l319 457 459 -345 c252 -191 477 -356 499
-367 31 -17 58 -22 120 -22 92 0 136 19 197 82 20 21 221 301 447 622 444 629
450 640 438 744 -13 104 -96 201 -199 232 -66 19 -101 19 -164 -3z"/>
</g>
</svg>
