<?xml version="1.0" standalone="no"?>
<!DOCTYPE svg PUBLIC "-//W3C//DTD SVG 20010904//EN"
 "http://www.w3.org/TR/2001/REC-SVG-20010904/DTD/svg10.dtd">
<svg version="1.0" xmlns="http://www.w3.org/2000/svg"
 width="512.000000pt" height="512.000000pt" viewBox="0 0 512.000000 512.000000"
 preserveAspectRatio="xMidYMid meet">

<g transform="translate(0.000000,512.000000) scale(0.100000,-0.100000)"
fill="#000000" stroke="none">
<path d="M2395 4899 c-219 -30 -446 -125 -621 -259 -79 -61 -214 -206 -271
-290 -368 -546 -270 -1264 232 -1699 36 -32 46 -45 35 -49 -39 -13 -194 -99
-269 -150 -477 -316 -788 -829 -850 -1404 -6 -54 -11 -134 -11 -178 0 -255
132 -473 353 -586 145 -74 35 -69 1567 -69 1299 0 1379 1 1439 18 294 84 481
333 481 642 0 410 -163 855 -437 1195 -162 201 -423 407 -648 511 -27 13 -52
25 -54 26 -3 2 15 20 40 40 334 277 508 732 445 1161 -42 284 -161 520 -365
723 -191 191 -393 300 -656 354 -97 20 -314 27 -410 14z m400 -454 c285 -83
504 -303 587 -591 20 -68 23 -101 22 -234 0 -142 -2 -162 -28 -240 -50 -150
-99 -233 -205 -344 -110 -114 -248 -195 -406 -237 -113 -29 -299 -30 -410 0
-323 86 -566 340 -630 660 -23 112 -16 294 15 401 75 261 282 481 537 571 158
56 356 62 518 14z m-104 -2106 c367 -37 670 -178 919 -429 211 -211 340 -443
406 -730 30 -129 43 -337 24 -394 -16 -50 -66 -105 -115 -127 -38 -18 -105
-19 -1363 -19 -1173 0 -1327 2 -1360 16 -48 19 -88 59 -114 109 -19 36 -20 51
-15 175 32 724 605 1322 1342 1399 116 12 161 12 276 0z"/>
</g>
</svg>
