<?xml version="1.0" standalone="no"?>
<!DOCTYPE svg PUBLIC "-//W3C//DTD SVG 20010904//EN"
 "http://www.w3.org/TR/2001/REC-SVG-20010904/DTD/svg10.dtd">
<svg version="1.0" xmlns="http://www.w3.org/2000/svg"
 width="512.000000pt" height="512.000000pt" viewBox="0 0 512.000000 512.000000"
 preserveAspectRatio="xMidYMid meet">

<g transform="translate(0.000000,512.000000) scale(0.100000,-0.100000)"
fill="#000000" stroke="none">
<path d="M681 4624 c-169 -45 -301 -180 -346 -351 -23 -86 -23 -3340 0 -3426
45 -173 178 -307 350 -352 52 -13 277 -15 1875 -15 1980 0 1865 -3 1982 56 71
36 159 123 197 193 64 121 61 41 61 1511 0 1167 -2 1343 -15 1395 -49 187
-205 329 -396 359 l-69 10 0 106 c0 171 -38 278 -137 381 -61 64 -141 111
-228 134 -87 22 -3190 22 -3274 -1z m3245 -330 c60 -44 69 -67 72 -185 l4
-109 -1616 0 c-1767 0 -1656 -4 -1709 59 -66 79 -36 206 58 247 25 11 309 13
1597 11 1565 -2 1567 -2 1594 -23z m-1384 -614 c1835 -5 1837 -5 1864 -26 15
-11 37 -33 48 -48 20 -26 21 -42 24 -377 l3 -349 -353 0 c-404 0 -444 -5 -578
-71 -209 -104 -350 -332 -350 -569 0 -238 140 -464 351 -568 135 -67 173 -72
577 -72 l353 0 -3 -349 c-3 -335 -4 -351 -24 -377 -11 -15 -33 -37 -48 -48
l-27 -21 -1819 0 -1819 0 -27 21 c-15 11 -37 33 -48 48 -21 27 -21 31 -24
1431 l-2 1404 32 -12 c25 -9 498 -13 1870 -17z m1938 -1441 l0 -320 -362 3
-363 3 -63 34 c-69 38 -110 80 -144 151 -32 66 -31 196 2 265 42 86 125 154
215 176 17 4 184 7 373 8 l342 1 0 -321z"/>
</g>
</svg>
